<?xml version="1.0" encoding="utf-8"?>
<!-- Generator: Adobe Illustrator 18.1.1, SVG Export Plug-In . SVG Version: 6.00 Build 0)  -->
<!DOCTYPE svg PUBLIC "-//W3C//DTD SVG 1.1//EN" "http://www.w3.org/Graphics/SVG/1.1/DTD/svg11.dtd">
<svg version="1.1" id="Layer_1" xmlns="http://www.w3.org/2000/svg" xmlns:xlink="http://www.w3.org/1999/xlink" x="0px" y="0px"
	 viewBox="0 0 60 40" enable-background="new 0 0 60 40" xml:space="preserve">
<g>
	<defs>
		<path id="SVGID_1_" d="M46.8,0.4c-2.8,0-5.6,0.9-7.8,2.1c-4.7,1.5-7,2.3-9.3,2.3c-2.2,0-4.5-0.7-9-2c-2.3-1.2-5.3-2.2-8.2-2.2
			c-3.5,0-6.8,1.5-8.5,6C2,13,2.3,16.3,2.5,19.4c0.4,3.1,0.7,6.2,2.6,12.3c1.7,4.6,5,6.3,8.5,6.3c2.4,0,5-0.8,7.1-1.8
			c4.4-1.3,6.7-1.9,8.8-1.9c2.4,0,4.7,0.8,9.5,2.4c2,1.1,4.4,1.8,6.8,1.8c3.8,0,7.4-1.8,9.1-6.7c1.9-6.2,2.1-9.2,2.3-12.4
			c0.1-3.1,0.3-6.3-1.5-12.7C53.9,2,50.4,0.4,46.8,0.4"/>
	</defs>
	<use xlink:href="#SVGID_1_"  overflow="visible" fill="#FCEF57"/>
	<clipPath id="SVGID_2_">
		<use xlink:href="#SVGID_1_"  overflow="visible"/>
	</clipPath>
	<path clip-path="url(#SVGID_2_)" fill="#FCEF57" d="M45.8,43.7c-2.9,0-6-0.8-8.8-2.2l-0.3-0.1c-4.1-1.3-5.8-1.9-7.3-1.9
		c-1.4,0-3.2,0.5-7,1.6c-2.2,1-5.3,2.2-8.9,2.2c-6.3,0-11.1-3.5-13.3-9.7l-0.1-0.2c-2-6.4-2.4-9.8-2.7-13l-0.1-0.6
		C-2.9,16.3-3.2,12.3-0.8,5l0.1-0.3c2.2-5.9,7.1-9.3,13.3-9.3c4.1,0,7.9,1.5,10,2.5c3.6,1.1,5.7,1.7,7.1,1.7c1.4,0,3.2-0.6,7.3-1.9
		c3.1-1.6,6.6-2.5,9.8-2.5c6.4,0,11.4,3.5,13.7,9.6l0.1,0.4c2,7,1.9,10.9,1.8,14l-0.1,1.2c-0.3,3.1-0.5,6.6-2.5,13l-0.1,0.2
		C57.5,39.9,52.3,43.7,45.8,43.7z"/>
</g>
</svg>
